<svg width="22" height="26" viewBox="0 0 22 26" fill="none" xmlns="http://www.w3.org/2000/svg">
<path d="M21.4413 20.2619C21.0481 21.1703 20.5827 22.0064 20.0435 22.7752C19.3084 23.8231 18.7066 24.5485 18.2428 24.9514C17.5238 25.6126 16.7534 25.9512 15.9285 25.9705C15.3363 25.9705 14.6221 25.802 13.7908 25.4601C12.9568 25.1199 12.1903 24.9514 11.4894 24.9514C10.7544 24.9514 9.96602 25.1199 9.12284 25.4601C8.27834 25.802 7.59803 25.9801 7.07787 25.9978C6.28684 26.0315 5.49836 25.6832 4.71133 24.9514C4.20898 24.5132 3.58068 23.7621 2.82797 22.6981C2.02039 21.5618 1.35646 20.2442 0.836307 18.742C0.279251 17.1195 0 15.5483 0 14.0272C0 12.2848 0.37651 10.782 1.13065 9.52263C1.72334 8.51107 2.51181 7.71311 3.49866 7.12735C4.48549 6.54156 5.5518 6.24303 6.70009 6.22396C7.32841 6.22396 8.15235 6.4183 9.17627 6.80027C10.1973 7.18352 10.8529 7.37786 11.1403 7.37786C11.3552 7.37786 12.0835 7.1506 13.3182 6.69755C14.4857 6.2774 15.4711 6.1034 16.2784 6.17195C18.4659 6.34848 20.1093 7.21079 21.2022 8.76433C19.2458 9.94971 18.2781 11.6099 18.2973 13.7398C18.315 15.3988 18.9168 16.7793 20.0996 17.8755C20.6357 18.3842 21.2343 18.7774 21.9003 19.0566C21.7559 19.4755 21.6034 19.8767 21.4413 20.2619ZM16.4244 0.520154C16.4244 1.82044 15.9494 3.03453 15.0025 4.15828C13.8598 5.4942 12.4777 6.26614 10.9789 6.14433C10.9588 5.98086 10.9487 5.81631 10.9487 5.65162C10.9487 4.40334 11.4921 3.06742 12.4572 1.97515C12.9389 1.4221 13.5517 0.962256 14.2948 0.595426C15.0362 0.234071 15.7375 0.0342302 16.3972 0C16.4164 0.173823 16.4244 0.347689 16.4244 0.520154Z" fill="#3B5EDF"/>
</svg>
