<svg width="21" height="25" viewBox="0 0 21 25" fill="none" xmlns="http://www.w3.org/2000/svg">
<path d="M8.33346 2.1565C4.51371 2.43104 1.88343 3.43017 0.479052 4.33175C-0.00506916 4.64255 -0.145579 5.28695 0.165215 5.77108C0.476009 6.2552 1.12042 6.39571 1.60454 6.08491C2.84245 5.29021 5.7603 4.16667 10.4168 4.16667C15.0579 4.16667 17.8968 5.28358 19.2546 6.10083C19.7476 6.39748 20.3876 6.23839 20.6843 5.74548C20.9809 5.25257 20.8219 4.6125 20.3289 4.31584C18.8629 3.43352 16.3062 2.43246 12.5001 2.15686V1.04167C12.5001 0.46637 12.0338 0 11.4585 0H9.37513C8.79983 0 8.33346 0.46637 8.33346 1.04167V2.1565Z" fill="white"/>
<path fill-rule="evenodd" clip-rule="evenodd" d="M0.588886 16.4319C0.531171 16.1705 0.471808 15.9016 0.410312 15.625C-1.25741 8.125 2.17645 6.25 10.4168 6.25C18.6571 6.25 22.091 8.125 20.4233 15.625C20.363 15.8962 20.3047 16.16 20.2481 16.4166L20.2465 16.4239L20.2448 16.4314C18.7373 23.2602 18.3532 25 10.4168 25C2.48031 25 2.09636 23.2607 0.588886 16.4319ZM6.25012 11.4583C6.82542 11.4583 7.29179 11.9247 7.29179 12.5V18.75C7.29179 19.3253 6.82542 19.7917 6.25012 19.7917C5.67482 19.7917 5.20845 19.3253 5.20845 18.75V12.5C5.20845 11.9247 5.67482 11.4583 6.25012 11.4583ZM11.4585 12.5C11.4585 11.9247 10.9921 11.4583 10.4168 11.4583C9.84149 11.4583 9.37512 11.9247 9.37512 12.5V18.75C9.37512 19.3253 9.84149 19.7917 10.4168 19.7917C10.9921 19.7917 11.4585 19.3253 11.4585 18.75V12.5ZM14.5835 11.4583C15.1587 11.4583 15.6251 11.9247 15.6251 12.5V18.75C15.6251 19.3253 15.1587 19.7917 14.5835 19.7917C14.0082 19.7917 13.5418 19.3253 13.5418 18.75V12.5C13.5418 11.9247 14.0082 11.4583 14.5835 11.4583Z" fill="white"/>
</svg>
